<?xml version="1.0" standalone="no"?>
<!DOCTYPE svg PUBLIC "-//W3C//DTD SVG 20010904//EN"
 "http://www.w3.org/TR/2001/REC-SVG-20010904/DTD/svg10.dtd">
<svg version="1.0" xmlns="http://www.w3.org/2000/svg"
 width="512.000000pt" height="512.000000pt" viewBox="0 0 512.000000 512.000000"
 preserveAspectRatio="xMidYMid meet">
<metadata>
Created by potrace 1.14, written by Peter Selinger 2001-2017
</metadata>
<g transform="translate(0.000000,512.000000) scale(0.100000,-0.100000)"
fill="#000000" stroke="none">
<path d="M0 4298 c1 -725 2 -819 15 -790 8 18 20 52 26 75 27 101 285 608 361
711 213 285 471 548 741 752 l98 74 -621 0 -620 0 0 -822z m450 714 c0 -13
-12 -22 -22 -16 -10 6 -1 24 13 24 5 0 9 -4 9 -8z"/>
<path d="M4099 5075 c206 -111 479 -314 664 -495 146 -141 188 -199 298 -406
28 -52 53 -94 55 -94 2 0 4 234 4 520 l0 520 -552 0 -553 0 84 -45z"/>
<path d="M600 3293 c0 -6 8 -17 18 -24 16 -13 16 -13 2 6 -8 11 -16 22 -17 24
-2 2 -3 0 -3 -6z"/>
<path d="M1154 3238 l-19 -23 23 19 c21 18 27 26 19 26 -2 0 -12 -10 -23 -22z"/>
<path d="M789 3113 c-13 -16 -12 -17 4 -4 9 7 17 15 17 17 0 8 -8 3 -21 -13z"/>
<path d="M1132 3070 c0 -14 2 -19 5 -12 2 6 2 18 0 25 -3 6 -5 1 -5 -13z"/>
<path d="M941 2996 c2 -2 15 -9 29 -15 24 -11 24 -11 6 3 -16 13 -49 24 -35
12z"/>
<path d="M3484 2877 c3 -10 6 -28 6 -40 0 -15 3 -18 11 -10 8 8 6 19 -6 39 -9
16 -14 21 -11 11z"/>
<path d="M3505 2807 c-7 -16 17 -71 37 -83 6 -4 4 3 -5 17 -19 27 -22 43 -6
33 7 -4 7 2 -1 17 -17 33 -19 34 -25 16z"/>
<path d="M3561 2788 c0 -7 4 -22 9 -33 7 -17 9 -15 9 13 1 17 -3 32 -9 32 -5
0 -10 -6 -9 -12z"/>
<path d="M1756 2762 c-3 -5 1 -9 9 -9 8 0 12 4 9 9 -3 4 -7 8 -9 8 -2 0 -6 -4
-9 -8z"/>
<path d="M1675 2720 c10 -34 26 -50 20 -20 -2 13 -10 28 -16 34 -8 8 -9 4 -4
-14z"/>
<path d="M1781 2724 c0 -11 3 -14 6 -6 3 7 2 16 -1 19 -3 4 -6 -2 -5 -13z"/>
<path d="M3615 2730 c-3 -5 0 -7 9 -4 9 4 16 -2 19 -18 4 -21 4 -20 6 5 1 27
-21 38 -34 17z"/>
<path d="M3563 2695 c-3 -9 -3 -18 -1 -21 3 -3 8 4 11 16 6 23 -1 27 -10 5z"/>
<path d="M3596 2695 c-9 -26 -7 -32 5 -12 6 10 9 21 6 23 -2 3 -7 -2 -11 -11z"/>
<path d="M1791 2700 c0 -3 6 -30 14 -60 10 -40 13 -47 14 -25 0 24 -26 105
-28 85z"/>
<path d="M3641 2673 c0 -4 4 -17 9 -28 8 -19 9 -19 9 2 1 12 -3 25 -9 28 -5 3
-10 3 -9 -2z"/>
<path d="M1702 2645 c0 -16 2 -22 5 -12 2 9 2 23 0 30 -3 6 -5 -1 -5 -18z"/>
<path d="M3553 2610 c0 -30 2 -43 4 -27 2 15 2 39 0 55 -2 15 -4 2 -4 -28z"/>
<path d="M1743 2580 c0 -36 2 -50 4 -32 2 17 2 47 0 65 -2 17 -4 3 -4 -33z"/>
<path d="M3573 2545 c0 -27 2 -38 4 -22 2 15 2 37 0 50 -2 12 -4 0 -4 -28z"/>
<path d="M1713 2530 c0 -30 2 -43 4 -27 2 15 2 39 0 55 -2 15 -4 2 -4 -28z"/>
<path d="M1822 2550 c0 -19 2 -27 5 -17 2 9 2 25 0 35 -3 9 -5 1 -5 -18z"/>
<path d="M2210 2555 c13 -14 26 -25 28 -25 3 0 -5 11 -18 25 -13 14 -26 25
-28 25 -3 0 5 -11 18 -25z"/>
<path d="M3659 2523 c0 -32 0 -107 -1 -168 0 -60 -2 -100 -5 -88 -3 14 -14 25
-29 29 -24 6 -92 0 -101 -9 -2 -3 -7 -61 -10 -131 -5 -105 -3 -133 11 -171 14
-35 23 -45 40 -45 40 0 66 41 82 126 15 81 32 514 21 514 -4 0 -7 -26 -8 -57z"/>
<path d="M3542 2480 c0 -14 2 -19 5 -12 2 6 2 18 0 25 -3 6 -5 1 -5 -13z"/>
<path d="M1833 2445 c0 -22 2 -30 4 -17 2 12 2 30 0 40 -3 9 -5 -1 -4 -23z"/>
<path d="M3533 2390 c0 -30 2 -43 4 -27 2 15 2 39 0 55 -2 15 -4 2 -4 -28z"/>
<path d="M1712 2300 c-2 -151 12 -290 36 -365 15 -43 22 -50 52 -58 31 -8 37
-6 58 20 25 30 25 31 3 303 l-6 75 -50 -3 c-27 -2 -58 -5 -67 -8 -15 -5 -18 5
-21 83 -2 69 -3 58 -5 -47z"/>
<path d="M3011 2403 c7 -12 15 -20 18 -17 3 2 -3 12 -13 22 -17 16 -18 16 -5
-5z"/>
<path d="M1842 2330 c0 -19 2 -27 5 -17 2 9 2 25 0 35 -3 9 -5 1 -5 -18z"/>
<path d="M142 1363 c-44 -199 -80 -675 -83 -1103 -1 -124 -1 -233 0 -242 1
-16 12 -18 86 -18 74 0 85 2 85 18 0 9 -7 89 -15 177 -17 183 -34 623 -35 895
0 197 -8 320 -20 320 -5 0 -13 -21 -18 -47z"/>
<path d="M4693 1110 c-5 -14 -13 -119 -17 -235 -10 -306 -25 -687 -31 -788
l-6 -87 116 0 c63 0 115 2 115 5 0 32 -81 592 -115 795 -24 146 -46 281 -48
300 -3 34 -3 35 -14 10z"/>
</g>
</svg>
